<svg aria-hidden="true" style="position: absolute; width: 0; height: 0; overflow: hidden;" version="1.1" xmlns="http://www.w3.org/2000/svg" xmlns:xlink="http://www.w3.org/1999/xlink">
<defs>
<symbol id="icon-luxury" viewBox="0 0 51 32">
<path fill="#000" style="fill: var(--color1, #000)" opacity="0.201" d="M32 16c0 8.837-7.163 16-16 16s-16-7.163-16-16c0-8.837 7.163-16 16-16s16 7.163 16 16z"></path>
<path fill="#19b89d" style="fill: var(--color2, #19b89d)" d="M24.784 18.268c1.553 0 2.813 1.283 2.813 2.866s-1.26 2.866-2.814 2.866-2.813-1.283-2.813-2.866c0-1.583 1.259-2.866 2.813-2.866zM42.349 18.268c1.554 0 2.814 1.283 2.814 2.866s-1.26 2.866-2.814 2.866-2.813-1.283-2.813-2.866c0-1.583 1.259-2.866 2.813-2.866zM35.034 9.908c0.185-0.189 0.442-0.307 0.728-0.307s0.543 0.117 0.727 0.307l0 0 2.972 3.027c3.555-0.092 7.76 0.914 11.171 3.002 0.31 0.19 0.499 0.531 0.499 0.899 0 2.405-1.701 4.411-3.941 4.84 0.318-2.958-1.966-5.506-4.842-5.506-2.917 0-5.203 2.611-4.831 5.592h-7.735c0.608-1.235 0.794-1.621 1.070-2.169l0.066-0.13c0.337-0.668 0.845-1.656 2.306-4.52 1.344-0.018 2.776-0.326 4.198-1.122l-2.387-2.432c-0.187-0.191-0.302-0.453-0.302-0.742s0.115-0.55 0.302-0.742l-0 0zM28.89 10.759c0.546-0.16 1.116 0.162 1.274 0.718l0.599 2.122c0.066 0.225 0.104 0.484 0.104 0.752 0 0.459-0.111 0.891-0.309 1.272l0.007-0.015-1.559 3.055c-0.856-1.512-2.448-2.491-4.223-2.491-2.876 0-5.16 2.547-4.842 5.508-1.466-0.278-2.731-1.23-3.422-2.621-0.070-0.138-0.111-0.301-0.111-0.473 0-0.236 0.077-0.454 0.207-0.63l-0.002 0.003 0.764-1.042-1.060-1.036c-0.601-0.588-0.301-1.619 0.512-1.785l5.395-1.098c0.074-0.015 0.116-0.024 0.126-0.025 0.251-0.117 0.856-0.473 0.856-1.205 0-0.587 0.474-1.062 1.053-1.048 0.57 0.013 1.014 0.53 1.005 1.11-0.005 0.467-0.107 0.91-0.287 1.31l0.008-0.021c1.408 0.191 2.677 0.512 3.886 0.957l-0.126-0.041-0.56-1.978c-0.026-0.087-0.041-0.188-0.041-0.291 0-0.472 0.311-0.871 0.739-1.004l0.007-0.002z"></path>
</symbol>
<symbol id="icon-sedans" viewBox="0 0 51 32">
<path fill="#000" style="fill: var(--color1, #000)" opacity="0.201" d="M32 16c0 8.837-7.163 16-16 16s-16-7.163-16-16c0-8.837 7.163-16 16-16s16 7.163 16 16z"></path>
<path fill="#ffd473" style="fill: var(--color3, #ffd473)" d="M42.349 19.288c1.554 0 2.814 1.234 2.814 2.756s-1.26 2.756-2.814 2.756-2.813-1.234-2.813-2.756c0-1.522 1.259-2.756 2.813-2.756zM24.783 19.288c1.554 0 2.814 1.234 2.814 2.756s-1.26 2.756-2.814 2.756-2.813-1.234-2.813-2.756c0-1.522 1.259-2.756 2.813-2.756zM30.342 15.41v1.143c0 0.573 0.488 1.034 1.078 1.007 0.548-0.031 0.98-0.482 0.98-1.035 0-0.001 0-0.001 0-0.002v0-1.114h6.605l10.786 1.050c0.765 0.074 1.341 0.705 1.341 1.451 0 2.312-1.701 4.242-3.941 4.655 0.318-2.846-1.966-5.296-4.842-5.296-2.917 0-5.203 2.512-4.831 5.378h-7.903c0.373-2.87-1.918-5.378-4.831-5.378-2.876 0-5.16 2.45-4.842 5.296-1.712-0.318-3.133-1.53-3.688-3.145h0.914c0.585 0 1.056-0.478 1.028-1.058-0.026-0.542-0.503-0.96-1.058-0.96h-1.138v-0.201c0-1.019 0.853-1.794 1.845-1.794h12.496zM34.072 8.8c2.116 0 3.992 1.245 4.778 3.17l0.581 1.423h-7.294l-1.406-4.594h3.342zM28.58 8.8l1.406 4.593h-8.782l2.686-2.923c0.953-1.028 2.311-1.67 3.819-1.67 0.002 0 0.005 0 0.007 0h0.865z"></path>
</symbol>
<symbol id="icon-suvs" viewBox="0 0 51 32">
<path fill="#000" style="fill: var(--color1, #000)" opacity="0.201" d="M32 16c0 8.837-7.163 16-16 16s-16-7.163-16-16c0-8.837 7.163-16 16-16s16 7.163 16 16z"></path>
<path fill="#26b5c0" style="fill: var(--color4, #26b5c0)" d="M24.802 17.886c2.334 0 4.144 2.074 3.81 4.405-0.206 1.378-1.115 2.503-2.344 3.013l-0.026 0.009c-0.426 0.178-0.921 0.281-1.441 0.281-1.103 0-2.098-0.465-2.798-1.211l-0.002-0.002c-0.95-1.008-0.988-2.090-1.010-2.090-0.336-2.339 1.486-4.405 3.81-4.405zM42.402 17.886c2.766 0 4.638 2.854 3.528 5.395-0.61 1.372-1.961 2.311-3.531 2.311-0.197 0-0.391-0.015-0.58-0.043l0.021 0.003c-1.684-0.259-2.996-1.576-3.245-3.24l-0.003-0.021c-0.336-2.332 1.477-4.405 3.81-4.405zM30.37 13.020v1.17c0 0 0 0.001 0 0.001 0 0.57 0.462 1.032 1.032 1.032 0.017 0 0.035-0 0.052-0.001l-0.002 0c0.554-0.026 0.982-0.505 0.982-1.061v-1.141h6.64l10.445 0.573c0.44 0.025 0.805 0.323 0.929 0.726l0.002 0.007c0.216 0.716 0.357 1.182 0.45 1.496h-0.838c-0.555 0-1.033 0.427-1.059 0.982-0.001 0.015-0.001 0.032-0.001 0.050 0 0.57 0.462 1.032 1.032 1.032h1.156c-0.131 1.78-1.256 3.354-2.88 4.040 0.104-3.37-2.604-6.104-5.907-6.104-3.454 0-6.21 2.974-5.886 6.469h-5.828c0.344-3.724-2.802-6.825-6.505-6.437v-2.834h6.187zM22.12 13.020v3.446c-1.932 1.001-3.23 2.986-3.23 5.274 0 0.192 0.009 0.382 0.027 0.57l-0.002-0.024c-1.629-0.101-2.912-1.446-2.914-3.091v-1.308h1.168c0.57 0 1.032-0.462 1.032-1.032s-0.462-1.032-1.032-1.032h-1.169v-2.57l0.002-0.232h6.117zM34.109 6.463c2.12 0 4 1.274 4.787 3.244l0.504 1.263c-0.030-0.002-0.048-0.003-0.066-0.004l0.014 0.001-0.021-0.002-0.027-0.002-0.018-0.002c-0.053-0.003-0.116-0.005-0.179-0.005-0 0-0 0-0 0v0l-0.078-0.001h-0.031l-0.109-0.001h-0.042l-0.261-0.001h-6.414l-1.346-4.491zM23.203 6.463l-0.898 4.493h-5.715l1.176-3.768c0.135-0.423 0.525-0.725 0.985-0.725h4.452zM28.669 6.463l1.346 4.492h-5.606l0.897-4.492h3.362z"></path>
</symbol>
</defs>
</svg>
